<?xml version="1.0" standalone="no"?>
<!DOCTYPE svg PUBLIC "-//W3C//DTD SVG 20010904//EN"
 "http://www.w3.org/TR/2001/REC-SVG-20010904/DTD/svg10.dtd">
<svg version="1.0" xmlns="http://www.w3.org/2000/svg"
 width="534.000000pt" height="628.000000pt" viewBox="0 0 534.000000 628.000000"
 preserveAspectRatio="xMidYMid meet">
<metadata>
Created by potrace 1.16, written by Peter Selinger 2001-2019
</metadata>
<g transform="translate(0.000000,628.000000) scale(0.100000,-0.100000)"
fill="#000000" stroke="none">
<path d="M4035 5931 c-162 -68 -318 -130 -500 -197 -159 -58 -399 -178 -525
-261 -129 -86 -271 -220 -316 -298 -46 -80 -44 -130 39 -690 20 -134 22 -190
22 -520 0 -403 0 -407 -66 -669 -51 -201 -117 -343 -224 -478 -73 -93 -171
-129 -263 -97 -55 19 -101 106 -146 279 -54 202 -68 318 -73 595 -6 304 4 480
54 905 40 343 49 644 25 815 -43 302 -137 483 -286 551 -94 43 -186 57 -291
44 -207 -26 -339 -74 -530 -192 -127 -79 -214 -146 -404 -310 -293 -251 -417
-391 -397 -443 10 -27 77 19 174 120 189 197 453 406 621 494 139 72 351 114
475 93 190 -31 304 -146 360 -363 45 -172 51 -232 51 -489 -1 -212 -5 -280
-33 -510 -44 -365 -52 -469 -59 -745 -7 -268 4 -422 42 -621 44 -228 103 -385
165 -437 57 -49 152 -47 259 3 175 83 332 233 495 474 116 171 166 288 226
531 61 249 65 292 65 665 0 295 -3 352 -22 480 -12 80 -27 190 -34 245 -6 55
-17 136 -25 180 -8 44 -14 106 -14 137 l0 57 60 36 c97 59 315 158 470 215
154 56 445 173 546 221 95 45 255 212 228 239 -6 6 -72 -18 -169 -59z"/>
<path d="M4465 3803 c-16 -2 -66 -13 -110 -23 -316 -74 -727 -377 -1041 -769
-263 -327 -381 -547 -498 -923 -135 -436 -170 -846 -95 -1120 28 -103 116
-278 188 -375 210 -281 413 -292 666 -38 44 45 95 107 113 138 158 265 293
809 322 1292 6 94 15 235 21 315 6 80 14 385 19 678 4 293 10 535 12 538 3 2
50 16 104 30 82 21 116 25 199 22 135 -5 188 -30 227 -109 60 -119 63 -404 8
-703 -45 -246 -102 -377 -249 -571 -108 -142 -123 -187 -49 -149 111 57 325
335 428 556 57 123 77 193 112 393 28 157 32 203 32 355 0 267 -32 373 -129
427 -62 35 -179 50 -280 36z m-556 -390 c-99 -103 -89 -40 -99 -655 -14 -903
-48 -1301 -144 -1679 -60 -232 -135 -445 -165 -463 -6 -4 -32 -8 -58 -8 -128
-3 -299 159 -414 392 -82 166 -109 297 -109 530 0 314 116 789 270 1107 117
240 329 514 516 664 58 46 230 159 243 159 3 0 -15 -21 -40 -47z"/>
</g>
</svg>
